<?xml version="1.0" standalone="no"?><!DOCTYPE svg PUBLIC "-//W3C//DTD SVG 1.1//EN" "http://www.w3.org/Graphics/SVG/1.1/DTD/svg11.dtd"><svg t="1525263140960" class="icon" style="" viewBox="0 0 1024 1024" version="1.1" xmlns="http://www.w3.org/2000/svg" p-id="8371" xmlns:xlink="http://www.w3.org/1999/xlink" width="200" height="200"><defs><style type="text/css"></style></defs><path d="M864.4 590.4c0-0.2-0.1-0.4-0.1-0.5-4.9-54.3-23.2-107.1-52.8-152.8-5.8-9-17.8-11.5-26.8-5.7-0.2 0.1-0.3 0.2-0.5 0.3-8.6 5.9-10.9 17.6-5.2 26.4 23.4 36 38.8 77.1 44.9 119.6-14 3.1-28.4 4.6-42.9 4.6-6.7 0-13.5-0.3-20.1-1h-0.1c-65.9-6.5-125-46.2-156.4-104.3 18-36.6 27.5-77.3 27.5-118.4 0-6.2-0.2-12.4-0.7-18.7 39.9 14.7 76.4 38 106.9 68.1 3.8 3.7 8.7 5.6 13.6 5.6 4.8 0 9.6-1.8 13.3-5.3l0.4-0.4c7.5-7.6 7.5-19.8-0.1-27.3-30.3-30-66-53.9-104.9-70.5 53.5-22.3 79.4-38.4 80.8-39.2 9.1-5.7 11.8-17.6 6.1-26.6-5.7-9-17.6-11.8-26.7-6.2-0.4 0.2-36.2 22.3-110.6 50.4L574 81.8c-0.9-5.3-4-10-8.6-12.9-4.6-2.9-10.1-3.8-15.4-2.5l-304.8 79.3c-5.2 1.4-9.7 4.9-12.2 9.6-2.5 4.8-3 10.4-1.2 15.5l16.9 48.1c0.1 0.8 0.3 1.7 0.5 2.5 0.4 1.5 1.1 3 1.8 4.3l50.4 143.1c-60.6 9-99.4 10-113.5 10-5 0-7.7-0.1-7.7-0.1-10.7-0.5-19.8 7.7-20.3 18.4s7.7 19.7 18.4 20.2c0.3 0 3.5 0.2 9.5 0.2 13.3 0 37.3-0.7 71.9-4.4-32.6 41.5-54.8 89.9-65.1 142.3 0 0.1-0.1 0.3-0.1 0.4-4.2 20.7-6.3 43.6-6.3 68V700c0 62.1 49.6 112.9 111.4 114.9 41.4 87.8 129.1 143.8 227.2 143.8 98 0 185.8-56 227.2-143.8 61.8-2 111.4-52.8 111.4-114.9v-79.2c0.3-10.3-0.1-20.4-1-30.4z" fill="#2E0C08" p-id="8372"></path><path d="M738.2 407.9c-30.5-30.1-67-53.4-106.9-68.1 0.4 6.2 0.7 12.5 0.7 18.7 0 41.1-9.5 81.8-27.5 118.4 31.4 58.1 90.5 97.8 156.4 104.3h0.1c6.6 0.7 13.3 1 20.1 1 14.5 0 28.9-1.5 42.9-4.6-6.1-42.5-21.5-83.5-44.9-119.6-5.7-8.8-3.3-20.5 5.2-26.4-6-8.1-12.4-16-19.1-23.5-3.7 3.5-8.5 5.3-13.3 5.3-5 0.1-10-1.7-13.7-5.5z" fill="#F67A6A" p-id="8373"></path><path d="M227.4 623.5c0-10.9 0.5-21.3 1.4-31.4 15.1 8.6 30.9 15.7 47.3 21.2v94.4c0 22.5 2.9 44.5 8.8 65.9-33-8.5-57.5-38.4-57.5-73.9v-76.2zM319.4 404.9c3.3-0.5 6.7-1.1 10.1-1.6 43.7-7.3 90.2-17.3 138.2-29.8 43.9-11.4 85.6-24 124.3-37.5 0.7 7.5 1.1 15.1 1.1 22.6 0 38.2-9.5 75.9-27.5 109.2l-0.7 1.3C524.3 543.1 446.7 589 362.3 589c-21 0-41.7-2.8-61.8-8.3-23.2-6.4-45-16.3-65.1-29.5 13.4-56.1 42.2-106.2 84-146.3z" fill="#F67A6A" p-id="8374"></path><path d="M440.6 269.7c-25.2 6.6-50.3 12.5-74.5 17.6-16.4 3.5-32.7 6.6-48.5 9.4l-4.6-13 17.6-4.6c10.4-2.7 16.6-13.2 13.9-23.6-2.7-10.3-13.3-16.5-23.6-13.8l-20.7 5.4-6.4-18.2 11.9-3.1c10.4-2.7 16.6-13.3 13.9-23.6-2.7-10.3-13.3-16.5-23.6-13.8l-15.1 3.9-5.2-14.8 264-68.7 21.7 124.5c-37.9 13.2-78.4 25.4-120.8 36.4z" fill="#F6442C" p-id="8375"></path><path d="M573.1 301.6c-36 12.3-74.7 23.9-115.2 34.4-40.6 10.5-80 19.3-117.4 26l-10-28.4c14.3-2.6 28.9-5.4 43.6-8.5 24.8-5.3 50.5-11.3 76.3-18 41.1-10.7 80.6-22.5 117.6-35.2l5.1 29.7z" fill="#BCE5E5" p-id="8376"></path><path d="M527.2 919.7c-86.6 0-163.8-51.7-196.6-131.7 0-0.1 0-0.1-0.1-0.2-10.4-25.4-15.7-52.4-15.7-80.1v-84.5c15.6 2.8 31.5 4.2 47.6 4.2 87.8 0 169.3-42.6 219.6-113 36.2 53.9 93.5 91.5 157.6 102.8v90.5c0 27.7-5.3 54.6-15.7 80.1 0 0.1 0 0.1-0.1 0.2-32.8 80-110 131.7-196.6 131.7z" fill="#FFE5CD" p-id="8377"></path><path d="M827 620.5v79.2c0 35.5-24.5 65.5-57.5 73.9 5.8-21.4 8.8-43.4 8.8-65.9v-86.9h2.7c15.5 0 30.9-1.5 46-4.4v4.1z" fill="#F67A6A" p-id="8378"></path><path d="M527.2 796.9c32.2 0 58.5-26.2 58.5-58.4 0-10.7-8.7-19.3-19.4-19.3s-19.4 8.7-19.4 19.3c0 10.9-8.9 19.7-19.7 19.7-10.7 0-19.4 8.7-19.4 19.3 0 10.7 8.7 19.4 19.4 19.4zM709.1 663.5h-13.7c-8-22.7-29.7-39-55.2-39-32.2 0-58.5 26.2-58.5 58.4 0 10.7 8.7 19.3 19.4 19.3s19.4-8.7 19.4-19.3c0-10.9 8.9-19.7 19.7-19.7 10.9 0 19.8 8.8 19.8 19.7 0 10.7 8.7 19.3 19.4 19.3h29.7c10.7 0 19.4-8.7 19.4-19.3 0-10.7-8.7-19.4-19.4-19.4zM472.6 682.8c0-32.2-26.2-58.4-58.5-58.4-25.5 0-47.2 16.3-55.2 39h-13.7c-10.7 0-19.4 8.7-19.4 19.3 0 10.7 8.7 19.3 19.4 19.3H375c10.7 0 19.4-8.7 19.4-19.3 0-10.9 8.9-19.7 19.8-19.7s19.7 8.8 19.7 19.7c0 10.7 8.7 19.3 19.4 19.3 10.6 0.2 19.3-8.5 19.3-19.2zM580.3 825.1c-15.9 9.9-34.3 15.2-53.2 15.2-18.8 0-37.2-5.3-53.2-15.2-9.1-5.7-21-2.9-26.7 6.2-5.7 9.1-2.9 21 6.2 26.6 22.1 13.8 47.6 21 73.7 21s51.6-7.3 73.7-21.1c9.1-5.7 11.8-17.6 6.2-26.6-5.6-9-17.6-11.7-26.7-6.1z" fill="#2E0C08" p-id="8379"></path></svg>