<?xml version="1.0" standalone="no"?><!DOCTYPE svg PUBLIC "-//W3C//DTD SVG 1.1//EN" "http://www.w3.org/Graphics/SVG/1.1/DTD/svg11.dtd"><svg t="1525253162337" class="icon" style="" viewBox="0 0 1024 1024" version="1.1" xmlns="http://www.w3.org/2000/svg" p-id="8204" xmlns:xlink="http://www.w3.org/1999/xlink" width="200" height="200"><defs><style type="text/css"></style></defs><path d="M822.1 377.9c-0.1-23.5-2.9-47-8.3-69.7-13.2-55.5-41.7-106.2-82.5-146.8-7.5-7.5-19.7-7.5-27.2 0-0.2 0.2-0.3 0.3-0.4 0.5-7 7.5-6.9 19.2 0.4 26.5 34 33.9 58.3 75.8 70.5 121.7-17.5 31.1-42.9 57-73.9 75.2-0.2 0.1-0.4 0.3-0.7 0.4-30.7 17.9-65.9 27.3-101.7 27.3-24.7 0-49.2-4.5-72.1-13.2 23.7-18.7 43.8-41.7 59-67.8 21.1-36.2 32.3-77.6 32.3-119.7 0-30.5-5.8-60.4-17-88.3 17.6 6 34.5 13.8 50.7 23.4 3.1 1.8 6.5 2.7 9.8 2.7 6.3 0 12.5-3.1 16.1-8.8 0.1-0.2 0.3-0.3 0.4-0.5 5.4-9.1 2.5-20.8-6.6-26.2-32.1-19.1-66.7-32-103.3-38.5h-0.1l-1.8-0.3c-1.5-0.3-3-0.5-4.6-0.8-2.1-0.3-4.1-0.6-6.1-0.9-0.3 0-0.7-0.1-1-0.1h-0.1c-2.1-0.3-4.2-0.6-6.2-0.8h-0.5H546.9l-2.7-0.3c-1.3-0.1-2.7-0.3-4-0.4l-6.9-0.6h-1.2c-1.9-0.1-3.9-0.2-5.7-0.3h-0.2c-2.3-0.1-4.6-0.2-6.9-0.2h-2.9c-1.4 0-2.9-0.1-4.3-0.1H511.8l-11 0.2c-0.8 0-1.6 0.1-2.4 0.1h-1l-0.9 0.1c-1.3 0.1-2.7 0.1-4 0.2h-0.4l-10.3 0.8c-0.9 0.1-1.8 0.2-2.5 0.2h-0.1l-2.4 0.3c-1.3 0.1-2.5 0.3-3.8 0.5-1.3 0.2-2.6 0.3-3.9 0.5h-0.3l-9.8 1.5c-1.4 0.2-2.7 0.5-4 0.7l-3.6 0.7c-1.3 0.2-2.5 0.5-3.6 0.7h-0.2c-1 0.2-2 0.4-2.8 0.6h-0.1l-2.1 0.5c-1.3 0.3-2.5 0.6-3.8 0.9l-1.9 0.5c-1.3 0.3-2.5 0.6-3.8 1-0.1 0-0.1 0-0.2 0.1l-10.3 2.9c-1.3 0.4-2.6 0.8-4 1.2l-8.8 2.9c-0.8 0.3-1.7 0.6-2.5 0.9l-0.7 0.2c-0.2 0.1-0.4 0.1-0.6 0.2l-14.9 5.9c-0.1 0.1-0.3 0.1-0.4 0.2h-0.1l-0.8 0.4c-0.7 0.3-1.4 0.6-2 0.9-0.2 0.1-0.3 0.2-0.5 0.2l-18.6 8.9-0.6 0.3c-2.1 1.1-4.2 2.3-6.3 3.4h-0.1-0.1c-0.1 0.1-0.3 0.2-0.4 0.2l-15 9c-0.2 0.1-0.3 0.2-0.5 0.3-2 1.3-3.9 2.5-5.7 3.8l-0.5 0.3c-0.6 0.4-1.1 0.8-1.7 1.2l-0.6 0.4c-0.1 0.1-0.2 0.1-0.3 0.2l-3.4 2.3h-0.1c-1.8 1.3-3.6 2.5-5.3 3.8-0.1 0.1-0.2 0.2-0.3 0.2l-8.9 6.9c-0.1 0-0.1 0.1-0.2 0.1l-0.1 0.1-0.1 0.1c-1.6 1.3-3.1 2.5-4.6 3.8l-0.1 0.1c-1.7 1.4-3.5 2.9-5.5 4.7l-0.1 0.1-2.7 2.3c-1.3 1.1-2.6 2.3-3.9 3.6-0.6 0.5-1.1 1-1.7 1.6-0.8 0.7-1.5 1.4-2.3 2.2l-0.3 0.3c-1.6 1.6-3.2 3.1-4.8 4.7-1.7 1.7-3.4 3.4-5.1 5.2l-0.1 0.1c-1.5 1.6-3 3.2-4.5 4.9l-0.3 0.3c-0.9 0.9-1.7 1.9-2.6 2.9-3.1 3.4-6.1 7.1-9.2 10.9-0.2 0.2-0.3 0.4-0.5 0.6-0.6 0.8-1.2 1.5-1.8 2.3-0.6 0.8-1.2 1.6-1.8 2.3-0.1 0.2-0.2 0.3-0.4 0.5l-3 3.9c-0.2 0.3-0.4 0.5-0.6 0.8-39.1 53-59.8 115.8-59.8 182.1 0.4 81.7 34 160.7 92.4 218v2.5c0 47.9 16.1 93 46.5 130.6 6 7.5 12.6 14.6 19.6 21.2-0.1 2.5-0.2 4.9-0.2 7.4 0 118.7 136.5 195.7 142.3 198.9 2.9 1.6 6.1 2.4 9.4 2.4 3.3 0 6.5-0.8 9.5-2.5 5.8-3.3 142.2-81.5 142.2-198.9 0-2.5-0.1-4.9-0.2-7.4 42.1-39.7 66.1-94.5 66.1-151.7V597c58.1-57.2 91.7-136.8 91.7-219.1z" fill="#2E0C08" p-id="8205"></path><path d="M661.1 150.1c-3.4 0-6.8-0.9-9.8-2.7-16.2-9.6-33.1-17.4-50.7-23.4 11.2 27.9 17 57.8 17 88.3 0 42.1-11.2 83.5-32.3 119.7-15.2 26.1-35.3 49.1-59 67.8 22.9 8.7 47.4 13.2 72.1 13.2 35.8 0 71-9.4 101.7-27.3 0.2-0.1 0.4-0.3 0.7-0.4 31-18.2 56.4-44 73.9-75.2-12.2-45.9-36.4-87.8-70.5-121.7-7.3-7.3-7.5-19-0.4-26.5-8.4-7.3-17.2-14.2-26.5-20.5-3.7 5.6-9.9 8.7-16.2 8.7z" fill="#F2F2F2" p-id="8206"></path><path d="M294.5 436.5v103.1c-28.7-37.9-46.6-82.3-52.1-129.7 16.2 11 33.7 20 52.1 26.6z" fill="#CCCCCC" p-id="8207"></path><path d="M480.6 384.6c0 0.1 0 0.1 0 0-0.6 0.3-1.1 0.7-1.7 1-0.1 0-0.1 0.1-0.2 0.1-30.7 17.8-65.8 27.2-101.5 27.2-19.8 0-39.3-2.8-58.1-8.4-28.8-8.6-55.6-23.7-78-44 3.4-49.4 20.2-96.3 48.9-136.7 0-0.1 0.1-0.1 0.1-0.2 1.9-2.6 3.8-5.2 5.8-7.8v-0.1c0.6-0.8 1.3-1.6 2-2.5 0.6-0.8 1.3-1.6 2-2.5l0.1-0.1c2.6-3.2 5.3-6.5 8.1-9.6l2.2-2.4c1.4-1.6 2.8-3.1 4.3-4.6 2.9-3.1 5.9-6.1 8.8-8.8 0.7-0.7 1.4-1.3 2.1-2 0.6-0.5 1.1-1 1.7-1.6 1.1-1 2.2-2.1 3.4-3.1l2.4-2.1c0.1-0.1 0.2-0.2 0.3-0.2 1.4-1.3 2.9-2.5 4.4-3.7 0.1-0.1 0.2-0.1 0.2-0.2 1.3-1.1 2.6-2.2 4-3.3l8.5-6.6c1.5-1.1 3-2.2 4.5-3.2l5.9-4.1c1.6-1.1 3.2-2.1 4.8-3.2l14.4-8.6c0.1-0.1 0.2-0.1 0.3-0.2 1.6-0.9 3.2-1.8 4.8-2.6L403 132c0.5-0.2 0.9-0.4 1.4-0.6l15-5.9 0.4-0.2c0.6-0.2 1.2-0.4 1.7-0.6l8.6-2.9h0.1l1.8-0.6 0.8-0.2 9.8-2.8c0.5-0.1 1-0.3 1.5-0.4 0.5-0.1 1-0.2 1.4-0.4l1.8-0.4c1.1-0.3 2.1-0.5 3.2-0.8l2.3-0.5c0.7-0.2 1.4-0.3 2.1-0.4l0.3-0.1c1-0.2 2.1-0.4 3.1-0.6l3.5-0.7c1-0.2 1.9-0.4 2.9-0.5l9.4-1.5c1.1-0.1 2.1-0.3 3.2-0.4 1.1-0.1 2.2-0.3 3.3-0.4h0.4c0.6-0.1 1.1-0.1 1.9-0.2h0.1c0.5-0.1 1-0.1 1.5-0.1l10.2-0.8c1.1-0.1 2.2-0.1 3.4-0.2l1.7-0.1h0.2c0.5 0 1 0 1.5-0.1l10.7-0.2c2 0 3.9 0 5.8 0.1h0.7c1.9 0.1 3.8 0.1 5.8 0.2s4 0.2 5.9 0.3h0.6c1.5 0.1 2.9 0.2 4.4 0.4 0.5 0 0.9 0.1 1.4 0.1 2 0.2 4.1 0.4 6.1 0.6h0.4c1.8 0.2 3.7 0.4 5.6 0.7h0.1c1.1 0.2 2.2 0.3 3.3 0.5 17.6 30.3 26.8 64.7 26.8 100 0 70.2-37.7 136.3-98.5 172.3zM539.2 660.7c-7.4-6.1-11.7-15-11.7-24.6 0-7.4 2.5-14.4 7.3-20.2 6.3-7.7 15.5-11.6 24.8-11.6 7.1 0 14.3 2.4 20.3 7.2 8.5 7 26.8 40.7 43.8 76.9-52.8-12.7-78.5-22.8-84.5-27.7zM393 688.5c17-36.2 35.3-70 43.8-76.9 5.8-4.7 12.9-7.2 20.2-7.2 1.1 0 2.1 0.1 3.2 0.2 8.5 0.8 16.2 4.9 21.6 11.5 4.8 5.7 7.3 12.7 7.3 20.2 0 9.6-4.3 18.5-11.7 24.6-5.9 4.6-31.5 14.7-84.4 27.6z" fill="#F2F2F2" p-id="8208"></path><path d="M666 688.7c-15.3-34.2-42.6-90.9-61.8-106.6-28.8-23.5-70.8-20.5-95.9 6.1-11.7-12.3-27.2-20-44.3-21.7-18.7-1.8-37 3.7-51.6 15.6-17.9 14.6-42.8 64.9-58.5 99.4-13.8-24.9-21-52.5-21-81.4v-153c14.6 2.7 29.4 4.1 44.4 4.1 38.6 0 76.5-9.2 110.5-26.8 34 17.5 72 26.8 110.6 26.8 32.1 0 63.7-6.4 93-18.6V600c-0.1 31.5-9.1 62.1-25.4 88.7z" fill="#FFE5CD" p-id="8209"></path><path d="M783.3 364.8c0.2 4.4 0.4 8.8 0.4 13.2 0 58.3-19.3 115.1-54 161.4V412.3c20.2-13.2 38.3-29.2 53.6-47.5zM398.8 759.1c0-4.3 0.3-8.6 0.8-12.8 0.9-7.3 2.6-14.4 5.1-21.3 78-19.2 92.3-30.8 97.1-34.7 2.3-1.9 4.5-3.9 6.5-6.1 2 2.1 4.2 4.2 6.5 6.1 5.1 4.1 20.1 16.4 105.4 36.7 2 6.1 3.5 12.4 4.3 18.8 0.6 4.4 0.9 8.8 0.9 13.3 0 79.3-84.6 141.1-113.3 159.8-28.8-18.5-113.3-79.6-113.3-159.8z" fill="#CCCCCC" p-id="8210"></path><path d="M457.2 478.7c-10.6 0-19.2 8.6-19.2 19.1 0 7.8-6.4 14.2-14.3 14.2s-14.2-6.4-14.2-14.2c0-10.5-8.6-19.1-19.2-19.1s-19.2 8.6-19.2 19.1c0 28.9 23.6 52.4 52.7 52.4s52.7-23.5 52.7-52.4c-0.1-10.6-8.7-19.1-19.3-19.1zM631.8 478.7c-10.6 0-19.2 8.6-19.2 19.1 0 7.8-6.4 14.2-14.2 14.2-7.9 0-14.3-6.4-14.3-14.2 0-10.5-8.6-19.1-19.2-19.1s-19.2 8.6-19.2 19.1c0 28.9 23.6 52.4 52.7 52.4 29 0 52.7-23.5 52.7-52.4-0.1-10.6-8.7-19.1-19.3-19.1z" fill="#2E0C08" p-id="8211"></path></svg>