<?xml version="1.0" standalone="no"?><!DOCTYPE svg PUBLIC "-//W3C//DTD SVG 1.1//EN" "http://www.w3.org/Graphics/SVG/1.1/DTD/svg11.dtd"><svg t="1525268664094" class="icon" style="" viewBox="0 0 1024 1024" version="1.1" xmlns="http://www.w3.org/2000/svg" p-id="8745" xmlns:xlink="http://www.w3.org/1999/xlink" width="200" height="200"><defs><style type="text/css"></style></defs><path d="M886.1 343c-3.4-11-15-17.1-25.9-13.6-0.5 0.2-52.2 16.1-153.6 26.7l22-266.2c0.5-5.8-1.5-11.5-5.4-15.8-3.9-4.3-9.4-6.7-15.2-6.7h-60.4c-11.4 0-20.7 9.3-20.7 20.8s9.3 20.8 20.7 20.8h37.9l-13.6 164.4c-50.3 4.1-103.9 6.3-159.8 6.3-32.7 0-64.8-0.7-95.4-2.1-21.7-1-43.3-2.4-64.4-4.1l-2-23.7h26.3c11.4 0 20.7-9.3 20.7-20.8s-9.3-20.8-20.7-20.8h-29.7l-2.6-30.9h19c11.4 0 20.7-9.3 20.7-20.8s-9.3-20.8-20.7-20.8h-22.5l-2.2-26.5h219.8c11.4 0 20.7-9.3 20.7-20.8s-9.3-20.8-20.7-20.8H316.2c-5.8 0-11.3 2.4-15.2 6.7-3.9 4.3-5.9 10-5.4 15.8l5.3 63.9c-0.1 0.8-0.2 1.6-0.2 2.5 0 2 0.3 4 0.8 5.8l16 193.3-68.6-8.3c-56.1-8.9-84.7-17.7-85-17.8-10.9-3.5-22.5 2.6-26 13.6-3.4 11 2.6 22.7 13.5 26.1 1.3 0.4 31.6 9.9 91.4 19.3 0.2 0 0.5 0.1 0.7 0.1l62.9 7.6c-4.7 8.5-9.1 16.8-13.2 24.9l-12.2-4.3c-21.6-7.7-44.9-6.2-65.5 4.3-21.6 11-38.3 31.2-45.6 55.5-14.7 48.4 10.3 100.9 55.6 117l26.2 9.3c7.6 49.8 28.9 95.9 62.3 134.1 32.9 37.6 74.7 64.6 121.8 78.8 2.4 34.2 44.9 110.1 58.1 133 3.7 6.4 10.5 10.4 17.9 10.4 7.4 0 14.2-3.9 17.9-10.4 13.3-23 55.8-98.9 58.1-133 38.1-11.6 73.3-31.8 102.8-59.2 41.8-38.9 69.7-90.1 80-145.9 2.3-0.4 4.6-1.1 6.7-2.3l33.2-18.2c42.3-23.2 59.5-79 38.3-124.4-10.8-23-29.4-39.9-52.5-47.5-21.5-7.1-44.3-5.1-64.5 5.4-4.4-8.7-9.2-17.7-14.2-26.9 101.3-11 152.4-26.9 154.7-27.7 11.2-3.5 17.3-15.1 13.8-26.1z" fill="#2E0C08" p-id="8746"></path><path d="M704.3 461.2c19.6 42 29.6 76 29.6 101 0 8.2-0.4 16.4-1.3 24.6-5 45.8-24.1 88.9-54.4 123.3-12.3-28.9-46.3-105.5-69.1-124.4-9.5-7.9-20.6-13-32.5-15.2 1.7-5.9 2.6-12.2 2.6-18.7 0-11.5-9.3-20.8-20.7-20.8-11.4 0-20.7 9.3-20.7 20.8 0 14.3-11.5 25.9-25.7 25.9-3.5 0-6.9-0.7-10-2-9.6-4.1-15.7-13.4-15.7-23.9V407.1c8.5 0.1 17.1 0.1 25.7 0.1 56.1 0 110-2.1 160.6-6.2 12.4 21.5 23 41.7 31.6 60.2z" fill="#FFE5CD" p-id="8747"></path><path d="M558.5 109H338.7l2.2 26.5h22.5c11.4 0 20.7 9.3 20.7 20.8s-9.3 20.8-20.7 20.8h-19L347 208h29.7c11.4 0 20.7 9.3 20.7 20.8s-9.3 20.8-20.7 20.8h-26.3l2 23.7c21 1.7 42.6 3.1 64.4 4.1 30.6 1.4 62.7 2.1 95.4 2.1 55.9 0 109.5-2.1 159.8-6.3L685.4 109h-37.9c-11.4 0-20.7-9.3-20.7-20.8h-47.5c-0.1 11.5-9.3 20.8-20.8 20.8z" fill="#646567" p-id="8748"></path><path d="M626.8 448.7c-11.4 0-20.7 9.3-20.7 20.8s9.3 20.8 20.7 20.8c11.4 0 20.7-9.3 20.7-20.8 0-11.4-9.3-20.8-20.7-20.8z" fill="#2E0C08" p-id="8749"></path><path d="M290.2 562.2c0-26 10.8-61.8 32.2-106.4 8.1-16.9 17.9-35.3 29.1-54.8 29.9 2.4 61.3 4.2 93.5 5.2v145.6c0 6.4 0.9 12.7 2.6 18.7-11.7 2.2-22.9 7.3-32.4 15.2-22.8 18.9-56.8 95.5-69.1 124.4-0.2-0.2-0.4-0.4-0.6-0.7-30.9-35.4-49.6-78.7-54.1-125.3-0.8-7.2-1.2-14.6-1.2-21.9z" fill="#FFE5CD" p-id="8750"></path><path d="M397.4 492.8c11.4 0 20.7-9.3 20.7-20.8s-9.3-20.8-20.7-20.8c-11.4 0-20.7 9.3-20.7 20.8s9.2 20.8 20.7 20.8z" fill="#2E0C08" p-id="8751"></path><path d="M477.3 812.8c0-2.6 0.3-5.1 1-7.6 3.7-14.7 17.6-25 33.8-25 16.2 0 30.1 10.3 33.8 25 0.6 2.5 1 5.1 1 7.6 0 10.9-15.9 46.6-34.7 82.5-19-35.8-34.9-71.5-34.9-82.5z" fill="#646567" p-id="8752"></path><path d="M664.7 359.9c-48.1 3.8-99.4 5.7-152.6 5.7-15.5 0-31-0.2-46-0.5-36.9-0.8-72.6-2.6-106.6-5.2l-3.7-44.4c19.4 1.5 39.1 2.8 59 3.7 31.2 1.5 63.9 2.2 97.3 2.2 54.5 0 106.9-2 156.3-5.8l-3.7 44.3z" fill="#ED1C24" p-id="8753"></path><path d="M543.9 665.4c-7.1-5.9-11.2-14.5-11.2-23.8 0-7.2 2.4-13.9 6.9-19.5 5.2-6.3 12.5-10.3 20.6-11.1 1-0.1 2-0.1 3-0.1 7.1 0 13.8 2.4 19.3 7 8.2 6.8 25.7 39.2 42.2 74.7-37.5-9.5-72.6-20.4-80.8-27.2zM475.2 614.5c3.6 1.9 6.7 4.5 9.3 7.6 4.5 5.6 6.9 12.3 6.9 19.5 0 9.3-4.1 17.9-11.2 23.8-8.2 6.8-43.3 17.7-81 27.2 16.5-35.4 34-67.9 42.2-74.7 5.6-4.6 12.4-7 19.4-7 4.9 0 9.8 1.2 14.4 3.6z" fill="#646567" p-id="8754"></path><path d="M512.1 738.6c-27.7 0-52.4 14.4-65.8 36.8-24.6-7.6-47.5-19.5-68-35.1 34.3-7.5 106.8-25 128.2-42.7 2-1.6 3.8-3.3 5.6-5.1 1.8 1.8 3.6 3.5 5.6 5.1 21.3 17.6 93.8 35.1 128.1 42.6-20.5 15.6-43.5 27.4-67.9 35.1-13.4-22.3-38.2-36.7-65.8-36.7zM209.7 488.6c4.1-13.7 12.9-24.5 24.7-30.5 10.4-5.3 22.1-6.1 33-2.2l8.1 2.9c-16.9 39-25.6 71.5-26.5 98.7l-9.4-3.3c-24.8-8.8-38.2-38.2-29.9-65.6zM750.4 461c10.4-5.7 22.2-6.8 33.3-3.2 12.1 4 22 13.1 27.9 25.6 12.1 25.8 2.8 57.2-20.6 70.1l-15.7 8.6c0-27.6-8.4-60.7-25.5-100.8l0.6-0.3z" fill="#FFE5CD" p-id="8755"></path></svg>