<?xml version="1.0" standalone="no"?><!DOCTYPE svg PUBLIC "-//W3C//DTD SVG 1.1//EN" "http://www.w3.org/Graphics/SVG/1.1/DTD/svg11.dtd"><svg t="1525268389137" class="icon" style="" viewBox="0 0 1024 1024" version="1.1" xmlns="http://www.w3.org/2000/svg" p-id="8620" xmlns:xlink="http://www.w3.org/1999/xlink" width="200" height="200"><defs><style type="text/css"></style></defs><path d="M675.8 102.6c-9.4-4.2-20.4-0.1-24.7 9.3-0.1 0.1-0.1 0.3-0.2 0.4-3.9 9.3 0.3 20.1 9.5 24.2 129 58.1 212.3 187.1 212.3 328.5 0 80.3-63.4 184.9-183.4 302.6-74.3 72.8-149.4 129.9-176.7 150-17.9-13.1-56.3-42.2-101.3-80.9l-54.8-49.3c-93.1-87.7-204-214.8-204-322.3C152.5 266.5 314 105 512.6 105c28.1 0 56.1 3.2 83.2 9.7 9.9 2.3 19.7-3.7 22.3-13.4 0-0.2 0.1-0.3 0.1-0.5 2.4-10-3.8-20.1-13.9-22.4-29.9-7.1-60.8-10.7-91.8-10.7-106.2 0-206 41.3-281 116.4-75.1 75.1-116.4 174.9-116.4 281 0 54.7 23.7 116.9 70.4 185C221.1 701.9 270 757.3 331 814.8l0.3 0.3 55.1 49.6 0.3 0.3c63.6 54.7 113 89.6 115.1 91.1 3.2 2.3 7 3.4 10.7 3.4s7.5-1.1 10.7-3.4c3.9-2.8 97-68.5 191.7-161.3C844.4 667.9 910 557 910 465.1c0-156.1-91.9-298.4-234.2-362.5z" fill="#2E0C08" p-id="8621"></path><path d="M595.8 114.6c-27.1-6.4-55.1-9.7-83.2-9.7-198.6 0.1-360.1 161.6-360.1 360.2 0 107.5 110.9 234.6 204 322.3l54.8 49.3c45 38.7 83.4 67.8 101.3 80.9 27.3-20.1 102.4-77.2 176.7-150C809.3 650 872.7 545.4 872.7 465c0-141.4-83.3-270.3-212.3-328.5-9.2-4.2-13.4-14.9-9.5-24.2-10.7-4.2-21.7-7.9-32.8-11.2-2.5 9.9-12.4 15.8-22.3 13.5z" fill="#F67A6A" p-id="8622"></path><path d="M392.9 195.3c-7.9-3.9-17.6-1.7-23 5.3-6.8 8.8-13.2 18-19.2 27.5-7.6-2.8-15.8-4.2-24.1-4.2-39.1 0-70.9 31.8-70.9 70.9 0 29.8 18.1 55.3 44.4 65.8-3.2 19.2-4.8 38.7-4.8 58.2 0 7.3 0.2 14.6 0.7 21.8h-18.8c-10.3 0-18.6 8.3-18.6 18.6s8.4 18.6 18.6 18.6h23.1c0.7 4.4 1.6 8.7 2.5 13.1H284c-10.3 0-18.6 8.3-18.6 18.6s8.4 18.6 18.6 18.6h28.6c6.8 20.9 15.4 41.3 26 60.6l23.8 43.8c21.2 38.9 56.1 67.8 98.3 81.3 9.8 3.1 20.3-2.3 23.4-12.1 0.1-0.4 0.2-0.7 0.3-1.1 2.4-9.5-2.9-19.3-12.4-22.3-30.4-9.7-56-29.7-72.8-56.6 35.1-8.1 90-22.5 107.6-37 2.1-1.7 4-3.5 5.9-5.5 1.8 1.9 3.8 3.8 5.9 5.5 17.6 14.5 72.5 28.9 107.6 37-11.3 18.1-26.7 33.2-45.1 44.2-11.5 6.8-23.9 11.9-37 15.1-9.6 2.3-15.7 11.7-14 21.4 0.1 0.4 0.1 0.8 0.2 1.1 2.1 8.5 9.7 14.3 18.1 14.3 1.4 0 2.9-0.2 4.4-0.5 16.6-4 32.5-10.5 47.3-19.3 26.4-15.7 48.2-38.3 62.9-65.4l23.8-43.8c12.5-23 22.3-47.2 29.5-72.2h25.1c10.3 0 18.6-8.3 18.6-18.6s-8.4-18.6-18.6-18.6h-16.6c0.7-4.3 1.4-8.7 2-13.1h21.3c10.3 0 18.6-8.3 18.6-18.6s-8.3-18.6-18.6-18.6h-18.3c0.7-23-0.9-45.9-4.7-68.6 8.8-3.6 16.8-8.8 23.6-15.6 13.4-13.4 20.8-31.2 20.8-50.2 0-18.9-7.4-36.8-20.8-50.2-19.7-19.7-48.9-25.5-74.1-16.5-6-9.5-12.5-18.7-19.3-27.5-5.4-7-15-9.2-23-5.3l-119.7 59-119.7-58.9z" fill="#2E0C08" p-id="8623"></path><path d="M544.1 681.2c13-3.1 25.4-8.2 37-15.1 18.4-10.9 33.8-26.1 45.1-44.2-35.1-8.1-90-22.5-107.6-37-2.1-1.7-4-3.5-5.9-5.5-1.8 1.9-3.8 3.7-5.9 5.5-17.6 14.5-72.5 28.9-107.6 37 16.8 26.9 42.3 46.9 72.8 56.6 9.4 3 14.8 12.8 12.4 22.3 9.2 1.7 18.7 2.7 28.3 2.7 5.9 0 11.7-0.4 17.5-1-1.8-9.6 4.2-19 13.9-21.3z" fill="#FFE5CD" p-id="8624"></path><path d="M326.6 261.2c1.8 0 3.5 0.1 5.2 0.4-9.7 19.8-17.6 40.3-23.5 61.5-9.3-6-15.4-16.4-15.4-28.3 0.1-18.5 15.1-33.6 33.7-33.6z" fill="#FFE5CD" p-id="8625"></path><path d="M538.1 514.1c5.9-7.2 14.5-10.9 23.1-10.9 6.7 0 13.4 2.2 18.9 6.8 8 6.6 25.1 38.3 41 72.4-36.6-9-71-19.7-79-26.2-6.9-5.7-10.9-14.1-10.9-23.1 0.1-7 2.4-13.6 6.9-19zM483.1 556.1c-8 6.5-42.4 17.2-79 26.2 16-34.2 33.1-65.9 41-72.4 5.6-4.6 12.3-6.8 19-6.8 8.6 0 17.2 3.7 23.1 10.9 4.5 5.4 6.8 12 6.8 19 0 9-4 17.5-10.9 23.1z" fill="#F67A6A" p-id="8626"></path><path d="M651.4 261.9c15.7 27.8 27.1 57.7 33.9 89 5.6 25.7 8 52 7.2 78.3h-11.2c-10.3 0-18.6 8.3-18.6 18.6s8.3 18.6 18.6 18.6h7.8c-0.7 4.4-1.4 8.7-2.2 13.1h-12.3c-10.3 0-18.6 8.3-18.6 18.6s8.3 18.6 18.6 18.6h2.7c-5.7 17.6-12.9 34.8-21.6 51.2-14.9-32.2-36.2-74-51.9-86.9-8.2-6.7-17.5-11.2-27.2-13.5 0.4-2.2 0.7-4.4 0.7-6.7 0-1.4-0.2-2.8-0.5-4.2l-15.9-68.3c1-15.1 13.6-27.1 28.9-27.1 10.3 0 18.6-8.3 18.6-18.6S600 324 589.8 324c-36.6 0-66.3 29.7-66.3 66.3 0 1.4 0.2 2.8 0.5 4.2l15.4 66.1c-4 4.7-18.1 11.2-26.8 11.2s-22.7-6.5-26.8-11.2l15.4-66.1c0.3-1.4 0.5-2.8 0.5-4.2 0-36.5-29.7-66.3-66.3-66.3-10.3 0-18.6 8.3-18.6 18.6s8.4 18.6 18.6 18.6c15.4 0 28 12 28.9 27.1l-15.9 68.3c-0.3 1.4-0.5 2.8-0.5 4.2 0 2.3 0.3 4.5 0.7 6.7-9.7 2.3-19.1 6.7-27.3 13.5-15.6 12.9-37 54.7-51.9 86.9-6.8-12.8-12.7-26.1-17.7-39.7 9.7-0.6 17.4-8.7 17.4-18.6 0-10.3-8.4-18.6-18.6-18.6h-9.9c-1-4.3-1.9-8.7-2.7-13.1h5.8c10.3 0 18.6-8.3 18.6-18.6s-8.4-18.6-18.6-18.6h-10.6c-0.5-7.3-0.8-14.5-0.8-21.8 0-22.9 2.5-45.8 7.3-68.1 6.8-31.2 18.2-61.1 33.9-88.9 5.1-9 10.7-17.8 16.6-26.3l114 56.1c5.2 2.6 11.3 2.6 16.5 0l114-56.1c6.2 8.5 11.8 17.3 16.8 26.3zM722.4 271c6.4 6.4 9.9 14.8 9.9 23.8s-3.5 17.4-9.9 23.8c-1.7 1.7-3.6 3.2-5.5 4.4-5.9-21.2-13.7-41.7-23.4-61.4 10.3-1.5 21.2 1.7 28.9 9.4z" fill="#FFE5CD" p-id="8627"></path><path d="M369.8 396.9c0 10.3 8.3 18.6 18.6 18.6h36.7c10.3 0 18.6-8.3 18.6-18.6s-8.4-18.6-18.6-18.6h-36.7c-10.3 0-18.6 8.3-18.6 18.6zM581.5 396.9c0 10.3 8.4 18.6 18.6 18.6h36.7c10.3 0 18.6-8.3 18.6-18.6s-8.4-18.6-18.6-18.6h-36.7c-10.3 0-18.6 8.3-18.6 18.6z" fill="#2E0C08" p-id="8628"></path></svg>