<?xml version="1.0" standalone="no"?><!DOCTYPE svg PUBLIC "-//W3C//DTD SVG 1.1//EN" "http://www.w3.org/Graphics/SVG/1.1/DTD/svg11.dtd"><svg t="1525253451194" class="icon" style="" viewBox="0 0 1024 1024" version="1.1" xmlns="http://www.w3.org/2000/svg" p-id="8585" xmlns:xlink="http://www.w3.org/1999/xlink" width="200" height="200"><defs><style type="text/css"></style></defs><path d="M710.9 382.2h-11c8.7-16.8 13.4-35.6 13.4-54.8 0-53.6-36.1-99.8-85.8-114.4 2.1-8.9 3.2-18.1 3.2-27.5 0-65.8-53.5-119.3-119.3-119.3s-119.3 53.5-119.3 119.3c0 9.4 1.1 18.5 3.2 27.4-2.9 0.9-5.8 1.8-8.7 2.9-10.1 3.8-15.2 15.1-11.4 25.2 0.2 0.6 0.5 1.2 0.8 1.8 4.4 8.9 15 13.2 24.4 9.6 7.1-2.7 14.6-4.3 22.2-4.9 2-0.2 4-0.2 6.1-0.2 26.6 0 51.4 13.2 66.4 35.2 9 13.3 13.7 28.8 13.7 44.9 0 20.4-7.9 40.1-21.7 54.8H370.4c-13.9-14.8-21.8-34.4-21.8-54.8 0-9.2 1.6-18.3 4.6-26.9 3.4-9.6-1.1-20-10.1-24.3-0.6-0.3-1.2-0.5-1.8-0.8-10.2-3.6-21.4 1.7-25 11.9-4.6 12.8-6.9 26.3-6.9 40.1 0 19.3 4.7 38.1 13.4 54.8h-11.1c-10.8 0-19.6 8.8-19.6 19.6v102.6c0 10.8 8.8 19.6 19.6 19.6H348v83c0 10.8 8.8 19.6 19.6 19.6h43.7c1.8 15.2 4.8 39.2 8.8 67.1 3.8 26.5 7.7 51.3 11.5 73.7 8.9 51.7 18.1 93.1 27.4 123.2 10.6 34.5 25.1 69.7 52.4 69.7 26.7 0 40.8-33.3 51.1-65.8 9-28.5 18.1-67.9 26.8-117.2 10.8-60.5 18.6-121.7 22.1-150.7h43.7c10.8 0 19.6-8.8 19.6-19.6v-83h36.2c10.8 0 19.6-8.8 19.6-19.6V401.8c0-10.8-8.8-19.6-19.6-19.6z" fill="#2E0C08" p-id="8586"></path><path d="M353.3 300.5c-3.1 8.6-4.6 17.7-4.6 26.9 0 20.4 7.9 40 21.8 54.8h116.7c13.9-14.8 21.7-34.4 21.7-54.8 0-16.1-4.7-31.6-13.7-44.9-15-22.1-39.8-35.2-66.4-35.2-2 0-4.1 0.1-6.1 0.2-7.7 0.6-15.1 2.2-22.2 4.9-9.5 3.6-20-0.7-24.4-9.6-13.4 8.4-24.7 19.8-32.8 33.4 8.9 4.2 13.4 14.7 10 24.3z" fill="#F6442C" p-id="8587"></path><path d="M535 273.2c16.4-17.9 40.2-27.6 65.1-25.7 41.5 3.1 74 38.2 74 79.9 0 20.4-7.9 40.1-21.7 54.8H534.6c8.7-16.8 13.4-35.6 13.4-54.8 0-19-4.4-37.5-13-54.2z" fill="#B5E166" p-id="8588"></path><path d="M511.4 105.4c44.2 0 80.1 35.9 80.1 80.1 0 7.8-1.1 15.5-3.3 22.8-29 1.4-56.2 13.3-76.8 33.1-20.6-19.8-47.8-31.7-76.8-33.1-2.2-7.3-3.3-15-3.3-22.8-0.1-44.2 35.9-80.1 80.1-80.1z" fill="#FFFAB3" p-id="8589"></path><path d="M691.3 484.8H331.4v-63.4h359.9zM594.1 587.3H387.2v-63.4h248.3v63.4zM511.4 916.6c-6.7-11.2-20.3-43.2-37-133.1h19.9c10.8 0 19.6-8.8 19.6-19.6s-8.8-19.6-19.6-19.6h-26.8c-1.8-10.9-3.6-22.2-5.3-34h19.9c10.8 0 19.6-8.8 19.6-19.6s-8.8-19.6-19.6-19.6h-25.5c-2.4-17.8-4.4-33.2-5.8-44.7H572c-3.4 27.8-10 78.6-18.9 130.7-18.9 110.2-34.4 147.3-41.7 159.5z" fill="#D5E6BC" p-id="8590"></path></svg>