<?xml version="1.0" standalone="no"?><!DOCTYPE svg PUBLIC "-//W3C//DTD SVG 1.1//EN" "http://www.w3.org/Graphics/SVG/1.1/DTD/svg11.dtd"><svg t="1525253391457" class="icon" style="" viewBox="0 0 1024 1024" version="1.1" xmlns="http://www.w3.org/2000/svg" p-id="8455" xmlns:xlink="http://www.w3.org/1999/xlink" width="200" height="200"><defs><style type="text/css"></style></defs><path d="M720.8 641.7c3.2-9.3 5.6-18.8 7.5-28.5 45.9-10.1 79.9-51.2 79.9-99.5V360.9c0-85.4-36.9-166.5-101.3-222.7-7.8-6.8-19.7-6-26.5 1.8-0.1 0.2-0.3 0.3-0.4 0.5-6.4 7.8-5.5 19.3 2.2 26 56.2 49.1 88.4 119.9 88.4 194.4v152.9c0 26-15.7 48.7-38.3 58.8V390.7c0-2-0.3-3.9-0.9-5.7-1.4-4.2-33.6-98.2-218.9-98.2S295 380.8 293.6 385c-0.3 0.9-0.5 1.9-0.7 2.9 0 0.3-0.1 0.6-0.1 0.9-0.1 0.6-0.1 1.3-0.1 1.9v181.8c-22.6-10.1-38.3-32.8-38.3-58.8V363.5c0-143.7 115.7-260.7 257.9-260.7h0.1c33.9 0 66.8 6.5 97.9 19.2 9.4 3.9 20.1-0.5 24.2-9.7l0.3-0.6c3.9-9.6-0.7-20.6-10.3-24.5-35.6-14.6-73.3-22-112.1-22h-0.2c-162.9 0.1-295.5 133.9-295.5 298.3v150.2c0 48.3 34.1 89.4 79.9 99.5 1.9 9.7 4.4 19.2 7.5 28.5C212.6 652 141 730.1 141 824.5v116.7c0 10.4 8.4 18.8 18.8 18.8h705.5c10.4 0 18.8-8.4 18.8-18.8V824.5c0-94.4-71.6-172.5-163.3-182.8z" fill="#2E0C08" p-id="8456"></path><path d="M610.4 122c-31.1-12.7-64-19.2-97.9-19.2h-0.1c-142.2 0.1-257.9 117-257.9 260.7v150.2c0 26 15.7 48.7 38.3 58.8V390.8c0-0.6 0-1.3 0.1-1.9 0-0.3 0.1-0.6 0.1-0.9 0.1-1 0.4-2 0.7-2.9 1.4-4.2 33.6-98.2 218.9-98.2s217.6 94 218.9 98.2c0.6 1.8 0.9 3.7 0.9 5.7v181.8c22.6-10.1 38.3-32.8 38.3-58.8V360.9c0-74.5-32.2-145.4-88.4-194.4-7.7-6.7-8.6-18.2-2.2-26-14.1-10.8-29.3-20.2-45.4-28.1-4.2 9.1-14.9 13.5-24.3 9.6z" fill="#646567" p-id="8457"></path><path d="M677.5 372H347.8c22.3-20.9 69.4-47.5 164.7-47.5 82.4 0 128.1 20.1 151.8 36.9 5.2 3.5 9.5 7.1 13.2 10.6z" fill="#F6442C" p-id="8458"></path><path d="M694.8 452.4c-4.1-7.6-9.3-14.6-15.6-20.8-10.3-10.3-22.6-17.7-36-22.1h51.5v42.9z" fill="#FFE5CD" p-id="8459"></path><path d="M630.5 756.7c2.1-1.3 4.2-2.7 6.3-4.1l-35.9 78.3-45.9-44c26.7-5.3 52.3-15.5 75.5-30.2zM394.6 756.7c23.2 14.8 48.8 24.9 75.5 30.2l-45.9 44-35.9-78.3c2.1 1.3 4.1 2.7 6.3 4.1z" fill="#F2F2F2" p-id="8460"></path><path d="M527 476.7h-28.9c-3.6-17-11.9-32.5-24.5-45.1-10.3-10.3-22.6-17.7-36-22.1h149.9c-30.4 9.9-53.8 35.5-60.5 67.2z" fill="#FFE5CD" p-id="8461"></path><path d="M567.2 517.1c-3-6.7-4.6-14-4.6-21.6 0-29.1 23.7-52.8 52.7-52.8 7.6 0 14.9 1.6 21.6 4.6l-69.7 69.8z" fill="#BCE5E5" p-id="8462"></path><path d="M668.1 495.5c0 29.1-23.7 52.7-52.8 52.7-7.6 0-14.9-1.6-21.6-4.6l69.7-69.7c3.1 6.7 4.7 14 4.7 21.6z" fill="#F2F2F2" p-id="8463"></path><path d="M357 495.5c0-29.1 23.7-52.8 52.8-52.8 7.6 0 14.9 1.6 21.6 4.6L361.7 517c-3.1-6.6-4.7-13.9-4.7-21.5z" fill="#BCE5E5" p-id="8464"></path><path d="M462.5 495.5c0 29.1-23.7 52.7-52.7 52.7-7.6 0-14.9-1.6-21.6-4.6l69.7-69.7c3 6.7 4.6 14 4.6 21.6z" fill="#F2F2F2" p-id="8465"></path><path d="M330.3 409.5h51.6c-22.2 7.2-40.7 22.8-51.6 43v-43zM330.3 538.6c4.1 7.5 9.3 14.5 15.5 20.8 17.1 17 39.7 26.4 63.9 26.4 43.4 0 79.7-30.7 88.4-71.5H525v71.8c0 8.4-6.8 15.1-15.1 15.1-10.4 0-18.8 8.4-18.8 18.8s8.4 18.8 18.8 18.8c29.1 0 52.7-23.7 52.7-52.7v-17.3c15.3 11 33.5 17 52.7 17 34.3 0 64.1-19.2 79.5-47.4v32.7c0 7.7-0.5 15.5-1.4 23.2-2.5 19.8-8.2 38.9-17 56.8-30.8 63.1-93.5 102.2-163.7 102.3h-0.3c-70.1 0-132.9-39.2-163.7-102.3-8.8-17.9-14.5-37-17-56.8-1-7.6-1.5-15.4-1.5-23.2l0.1-32.5z" fill="#FFE5CD" p-id="8466"></path><path d="M846.5 922.4H741.8v-91.2c0-10.4-8.4-18.8-18.8-18.8s-18.8 8.4-18.8 18.8v91.2H320.9v-91.2c0-10.4-8.4-18.8-18.8-18.8s-18.8 8.4-18.8 18.8v91.2H178.6v-97.9c0-76.7 59.4-139.8 134.6-145.9l87.8 192c2.5 5.5 7.6 9.5 13.6 10.6 6 1.1 12.1-0.7 16.5-4.9l81.5-78.1 81.5 78.1c3.5 3.4 8.2 5.2 13 5.2 1.2 0 2.4-0.1 3.5-0.3 6-1.1 11-5.1 13.6-10.6L712 678.7c75.2 6 134.6 69.1 134.6 145.9l-0.1 97.8z" fill="#F67A6A" p-id="8467"></path><path d="M447.6 691.6c19.5 12.2 41.9 18.6 65 18.6s45.6-6.5 65-18.6c8.8-5.5 11.5-17.1 5.9-25.9-5.5-8.8-17.1-11.5-25.9-5.9-13.4 8.4-29 12.9-45 12.9s-31.6-4.5-45.1-12.9c-8.8-5.5-20.4-2.8-25.9 6-5.5 8.7-2.8 20.3 6 25.8z" fill="#2E0C08" p-id="8468"></path></svg>