<?xml version="1.0" standalone="no"?><!DOCTYPE svg PUBLIC "-//W3C//DTD SVG 1.1//EN" "http://www.w3.org/Graphics/SVG/1.1/DTD/svg11.dtd"><svg t="1525268383331" class="icon" style="" viewBox="0 0 1024 1024" version="1.1" xmlns="http://www.w3.org/2000/svg" p-id="8496" xmlns:xlink="http://www.w3.org/1999/xlink" width="200" height="200"><defs><style type="text/css"></style></defs><path d="M866.1 294.3c-16 0-31.5 4-45.2 11.5-10.1-19.6-22-38.2-35.6-55.6-6.5-8.3-18.5-9.8-26.8-3.3-0.2 0.1-0.3 0.3-0.4 0.4-7.9 6.6-9.2 18.3-2.8 26.4 16.5 21.1 30.2 44.1 40.7 68.6 16.1 37.3 24.6 76.9 25.2 117.7v155.9c0 140.5-114.3 254.7-254.7 254.7H454.1c-140.5 0-254.7-114.3-254.7-254.7V465.4v-5.2c0.7-40.9 9.2-80.6 25.3-117.8 49.1-114.2 161.3-188 285.6-188 57.2 0 113.1 15.7 161.7 45.3 8.8 5.4 20.3 2.7 25.9-5.9 0.1-0.2 0.2-0.3 0.3-0.5 5.5-9 2.6-20.8-6.4-26.2-54.5-33.3-117.3-50.8-181.5-50.8-131.6 0-251.1 73.7-310.6 189.6-13.7-7.5-29.2-11.5-45.2-11.5-52.1 0-94.6 42.4-94.6 94.6 0 52.1 42.4 94.6 94.6 94.6 2.2 0 4.4-0.1 6.6-0.2v132.7C161.1 777.6 292.5 909 454 909h112.4c161.5 0 292.9-131.4 292.9-292.9V483.2c2.2 0.2 4.4 0.2 6.6 0.2 52.1 0 94.6-42.4 94.6-94.6 0.1-52-42.3-94.5-94.4-94.5z" fill="#2E0C08" p-id="8497"></path><path d="M671.9 199.7c-48.6-29.6-104.5-45.3-161.7-45.3-124.3 0-236.4 73.8-285.7 187.9-16.1 37.2-24.6 76.9-25.3 117.8V615.9c0 140.5 114.3 254.7 254.7 254.7h112.4c140.5 0 254.7-114.3 254.7-254.7V465.4v-5.3c-0.7-40.8-9.2-80.5-25.2-117.7-10.5-24.5-24.2-47.5-40.7-68.6-6.4-8.2-5.1-19.9 2.8-26.4-4.6-5.3-9.4-10.4-14.4-15.3-14.1-14.1-29.4-26.8-45.8-38.2-5.5 8.5-16.9 11.2-25.8 5.8z" fill="#A6CB70" p-id="8498"></path><path d="M184 340.9c-12.7 33.2-20.2 68.1-22.3 103.9-2.4 0.3-4.8 0.5-7.3 0.5-31.1 0-56.4-25.3-56.4-56.4 0-31.1 25.3-56.4 56.4-56.4 10.6 0 20.8 3 29.6 8.4zM858.8 444.8c-2.1-35.8-9.5-70.6-22.3-103.9 8.8-5.4 18.9-8.3 29.5-8.3 31.1 0 56.4 25.3 56.4 56.4 0 31.1-25.3 56.4-56.4 56.4-2.4-0.1-4.8-0.3-7.2-0.6z" fill="#FFE5CD" p-id="8499"></path><path d="M510.3 366.9c-29.7-35.3-74-56.4-121-56.4-87.2 0-158.1 70.9-158.1 158.1 0 76.3 53.7 140.1 126.1 154.8-3.4 13-5.1 26.3-5.1 40 0 87.2 70.9 158.1 158.1 158.1 87.2 0 158.1-70.9 158.1-158.1 0-13.6-1.7-27-5.1-40 72.4-14.8 126.1-78.6 126.1-154.8 0-87.2-70.9-158.1-158.1-158.1-47.1 0-91.3 21.1-121 56.4z" fill="#2E0C08" p-id="8500"></path><path d="M636.6 588.3c-6.3 0.3-12.1 3.6-15.4 9-3.3 5.4-3.8 12-1.2 17.8 6.7 15.3 10.2 31.5 10.2 48.3 0 66.1-53.8 119.9-119.9 119.9-66.1 0-119.9-53.8-119.9-119.9 0-16.8 3.4-33 10.1-48.3 2.5-5.8 2.1-12.4-1.3-17.8-3.3-5.4-9.1-8.7-15.4-9-64.2-2.8-114.5-55.4-114.5-119.7 0-66.1 53.8-119.9 119.9-119.9 43.1 0 83.1 23.3 104.4 60.9 3.4 6 9.7 9.7 16.6 9.7 6.9 0 13.2-3.7 16.6-9.7 21.3-37.6 61.3-60.9 104.4-60.9 66.1 0 119.9 53.8 119.9 119.9 0 64.3-50.3 116.9-114.5 119.7z" fill="#FFE5CD" p-id="8501"></path><path d="M399.1 439.7c-30.8 0-55.9 25.1-55.9 55.9 0 10.5 8.5 19.1 19.1 19.1s19.1-8.5 19.1-19.1c0-9.8 7.9-17.7 17.7-17.7 9.8 0 17.7 7.9 17.7 17.7 0 10.5 8.5 19.1 19.1 19.1 10.5 0 19.1-8.5 19.1-19.1 0-30.8-25.1-55.9-55.9-55.9zM621.4 439.7c-30.8 0-55.9 25.1-55.9 55.9 0 10.5 8.5 19.1 19.1 19.1 10.5 0 19.1-8.5 19.1-19.1 0-9.8 7.9-17.7 17.7-17.7 9.8 0 17.7 7.9 17.7 17.7 0 10.5 8.5 19.1 19.1 19.1s19.1-8.5 19.1-19.1c0-30.8-25-55.9-55.9-55.9zM545.9 612.8c10.5 0 19.1-8.6 19.1-19.1 0-10.6-8.6-19.1-19.1-19.1-10.6 0-19.1 8.5-19.1 19.1 0 10.6 8.6 19.1 19.1 19.1zM510.3 736.6c-30.8 0-55.9-25.1-55.9-55.9 0-10.5 8.5-19.1 19.1-19.1s19.1 8.5 19.1 19.1c0 9.8 7.9 17.7 17.7 17.7 9.8 0 17.7-7.9 17.7-17.7 0-10.5 8.5-19.1 19.1-19.1 10.5 0 19.1 8.5 19.1 19.1 0 30.8-25.1 55.9-55.9 55.9zM475.3 574.7c10.5 0 19.1 8.5 19.1 19.1 0 10.5-8.6 19.1-19.1 19.1-10.6 0-19.1-8.6-19.1-19.1 0-10.6 8.5-19.1 19.1-19.1z" fill="#2E0C08" p-id="8502"></path><path d="M545.9 574.7c10.5 0 19.1 8.5 19.1 19.1 0 10.5-8.6 19.1-19.1 19.1-10.6 0-19.1-8.6-19.1-19.1 0-10.6 8.6-19.1 19.1-19.1zM475.3 612.8c10.5 0 19.1-8.6 19.1-19.1 0-10.6-8.6-19.1-19.1-19.1-10.6 0-19.1 8.5-19.1 19.1 0 10.6 8.5 19.1 19.1 19.1zM547.1 661.6c-10.5 0-19.1 8.5-19.1 19.1 0 9.8-7.9 17.7-17.7 17.7-9.8 0-17.7-7.9-17.7-17.7 0-10.5-8.5-19.1-19.1-19.1s-19.1 8.5-19.1 19.1c0 30.8 25.1 55.9 55.9 55.9s55.9-25.1 55.9-55.9c0-10.5-8.6-19.1-19.1-19.1z" fill="#2E0C08" p-id="8503"></path></svg>