<?xml version="1.0" standalone="no"?><!DOCTYPE svg PUBLIC "-//W3C//DTD SVG 1.1//EN" "http://www.w3.org/Graphics/SVG/1.1/DTD/svg11.dtd"><svg t="1525346302700" class="icon" style="" viewBox="0 0 1024 1024" version="1.1" xmlns="http://www.w3.org/2000/svg" p-id="12579" xmlns:xlink="http://www.w3.org/1999/xlink" width="200" height="200"><defs><style type="text/css"></style></defs><path d="M763.6 270.4L181.2 71.6c-15.1-5.1-30.2-2.4-39.8 7.2l-16.7 16.7s235.6 149.8 449.8 364c170.2 170.2 364 449.8 364 449.8l16.7-16.7c9.6-9.6 12.3-24.7 7.2-39.8L763.6 270.4zM347 687L60.1 640.8c-8.2-0.5-17.7 3.8-25.2 11.3l-13 13s115.4 48.8 206.8 140.2c72.5 72.5 140.2 206.8 140.2 206.8l13-13c7.5-7.5 11.7-17 11.3-25.2L347 687z" fill="#429BCF" p-id="12580"></path><path d="M962.4 852.8L763.6 270.4 574.5 459.5c170.2 170.2 364 449.8 364 449.8l16.7-16.7c9.7-9.6 12.4-24.7 7.2-39.8zM393.2 973.9L347 687 228.8 805.2C301.4 877.8 369 1012 369 1012l13-13c7.3-7.4 11.6-17 11.2-25.1z" fill="#1A7FC0" p-id="12581"></path><path d="M892.6 291.5L463.8 720.3C422.3 761.8 126.4 990.5 85 949c-41.4-41.4 187.3-337.3 228.7-378.8l428.8-428.8C783.9 100 936.9 14.2 978.3 55.7c41.5 41.4-44.3 194.4-85.7 235.8z" fill="#83C6EF" p-id="12582"></path><path d="M898.8 220.9l-85.7-85.7 75-46.5 57.2 57.2z" fill="#F9C85D" p-id="12583"></path><path d="M855.9 178.1l42.9 42.8 46.5-75-28.6-28.6z" fill="#FFB103" p-id="12584"></path></svg>