<?xml version="1.0" standalone="no"?><!DOCTYPE svg PUBLIC "-//W3C//DTD SVG 1.1//EN" "http://www.w3.org/Graphics/SVG/1.1/DTD/svg11.dtd"><svg t="1525502422233" class="icon" style="" viewBox="0 0 1024 1024" version="1.1" xmlns="http://www.w3.org/2000/svg" p-id="1966" xmlns:xlink="http://www.w3.org/1999/xlink" width="200" height="200"><defs><style type="text/css"></style></defs><path d="M511.998 15.726C237.914 15.726 15.726 237.914 15.726 511.998c0 274.082 222.188 496.272 496.272 496.272S1008.27 786.08 1008.27 511.998C1008.274 237.914 786.084 15.726 511.998 15.726z m0 672.37c-97.256 0-176.098-78.842-176.098-176.098s78.842-176.098 176.098-176.098 176.098 78.842 176.098 176.098-78.842 176.098-176.098 176.098z" fill="#C69C6D" p-id="1967"></path><path d="M545.184 684.87c10.756 2.052 21.828 3.226 33.182 3.226 97.256 0 176.098-78.842 176.098-176.098s-78.842-176.098-176.098-176.098c-11.354 0-22.426 1.172-33.182 3.228 81.374 15.534 142.914 86.97 142.914 172.87s-61.54 157.338-142.914 172.872zM82.094 511.998c0-262.922 204.494-477.954 463.09-495.046-10.982-0.726-22.022-1.226-33.184-1.226-274.086 0-496.274 222.188-496.274 496.272 0 274.082 222.188 496.272 496.272 496.272 11.164 0 22.204-0.502 33.182-1.226-258.592-17.09-463.086-232.126-463.086-495.046z" fill="#A67C52" p-id="1968"></path><path d="M511.998 15.726c-18.176 0-36.104 1.042-53.774 2.946 248.784 26.816 442.502 237.418 442.502 493.326 0 255.908-193.716 466.51-442.502 493.326 17.67 1.904 35.596 2.946 53.774 2.946 274.084 0 496.272-222.19 496.272-496.272 0.004-274.084-222.186-496.272-496.272-496.272z" fill="#D1B08A" p-id="1969"></path><path d="M15.726 511.998c0 61.89 50.172 112.062 112.062 112.062s112.062-50.172 112.062-112.062c0-26.526 21.504-48.026 48.026-48.026 26.526 0 48.026 21.504 48.026 48.026 0-97.256 78.842-176.098 176.098-176.098s176.098 78.842 176.098 176.098c0-53.048 43.004-96.052 96.052-96.052 53.048 0 96.052 43.004 96.052 96.052 0 35.366 28.67 64.036 64.036 64.036s64.036-28.67 64.036-64.036c0-274.084-222.19-496.272-496.276-496.272S15.726 237.914 15.726 511.998z" fill="#0C6D95" p-id="1970"></path><path d="M95.772 511.998c0-260.596 200.902-474.128 456.25-494.526-13.216-1.056-26.534-1.746-40.022-1.746-274.086 0-496.274 222.188-496.274 496.272 0 61.89 50.172 112.062 112.062 112.062 14.12 0 27.578-2.722 40.022-7.49-42.096-16.126-72.038-56.802-72.038-104.572z" fill="#095270" p-id="1971"></path><path d="M511.998 15.726c-13.486 0-26.806 0.69-40.022 1.746 255.348 20.398 456.25 233.93 456.25 494.526 0 20.136-9.482 37.88-24.014 49.618 10.992 8.878 24.79 14.418 40.022 14.418 35.366 0 64.036-28.67 64.036-64.036 0.004-274.084-222.186-496.272-496.272-496.272z" fill="#29ABE2" p-id="1972"></path><path d="M1023.99 512.862c0-0.29 0.01-0.574 0.01-0.864 0-136.76-53.258-265.334-149.962-362.036C777.334 53.256 648.76 0 511.998 0S246.664 53.256 149.96 149.962C53.258 246.664 0 375.238 0 511.998c0 0.29 0.01 0.574 0.01 0.864H0c0 0.258 0.018 0.514 0.018 0.772 0.424 136.148 53.626 264.086 149.942 360.404C246.664 970.742 375.238 1024 511.998 1024s265.334-53.256 362.038-149.962c96.312-96.312 149.512-224.238 149.942-360.378 0.002-0.266 0.02-0.528 0.02-0.796h-0.008v-0.002zM172.204 172.202C262.966 81.44 383.64 31.452 511.998 31.452S761.034 81.44 851.796 172.202 992.544 383.642 992.544 512c0 0.528-0.016 1.054-0.018 1.584-0.408 24.874-21.908 47.268-48.29 47.268-26.638 0-48.31-21.996-48.31-48.634 0-61.636-50.144-111.564-111.78-111.564-37.718 0-71.106 18.484-91.36 47.23-26.442-74.336-97.494-127.704-180.79-127.704-88.502 0-163.182 60.248-185.216 141.882a63.376 63.376 0 0 0-38.906-13.274c-35.154 0-63.752 28.276-63.752 63.43 0 53.12-43.216 96.552-96.336 96.552-52.858 0-95.888-43.054-96.316-95.126-0.002-0.55-0.02-1.092-0.02-1.642 0.002-128.362 49.988-249.038 140.754-339.8z m500.166 339.796c0 88.43-71.942 160.37-160.37 160.37s-160.37-71.942-160.37-160.37 71.942-160.368 160.37-160.368 160.37 71.94 160.37 160.368z m179.428 339.8C761.034 942.56 640.358 992.546 512 992.546S262.968 942.56 172.204 851.798c-68.348-68.346-113.56-153.658-131.728-246.438 22.864 21.498 53.572 34.86 87.314 34.86 70.462 0 127.788-57.326 127.788-127.788 0-17.81 14.49-32.3 32.3-32.3s32.3 13.86 32.3 32.732h0.01c0.468 105.374 86.33 190.96 191.812 190.96s191.344-85.584 191.812-190.96h0.01c0-46.13 36.034-80.65 80.326-80.65 44.294 0 80.328 35.712 80.328 80.002 0 43.982 35.78 79.978 79.762 79.978a79.814 79.814 0 0 0 43.632-12.898c-14.324 102.83-61.372 197.8-136.072 272.502z" fill="" p-id="1973"></path><path d="M26.854 475.104l-22.24-22.24 64.036-64.036 22.24 22.24zM283.014 411.08l-22.24-22.24 64.036-64.038 22.24 22.24z" fill="#FBB03B" p-id="1974"></path><path d="M218.984 250.974l-22.24-22.24 64.036-64.036 22.24 22.24z" fill="#FFFFFF" p-id="1975"></path><path d="M363.042 234.956l-22.24-22.24L404.84 148.68l22.24 22.24z" fill="#FF1D25" p-id="1976"></path><path d="M699.246 314.998l-22.24-22.24 64.038-64.036 22.24 22.24z" fill="#FBB03B" p-id="1977"></path><path d="M843.326 282.974l-22.24-22.24 64.036-64.038 22.24 22.24zM891.36 555.12l-22.24-22.24 64.036-64.036 22.24 22.24z" fill="#FFFFFF" p-id="1978"></path><path d="M923.382 411.03l-22.24-22.24 64.038-64.036 22.24 22.24z" fill="#FBB03B" p-id="1979"></path><path d="M164.708 539.13l-64.036-64.036 22.24-22.24 64.036 64.036z" fill="#FFFFFF" p-id="1980"></path><path d="M180.708 363.034l-64.036-64.036 22.24-22.24 64.036 64.036zM709 170.924L644.96 106.888l22.24-22.24 64.036 64.036z" fill="#FF1D25" p-id="1981"></path><path d="M548.914 283.008l-64.036-64.036 22.24-22.24 64.036 64.036z" fill="#FFFFFF" p-id="1982"></path><path d="M805.042 411.056l-64.036-64.036 22.24-22.24 64.036 64.036z" fill="#FF1D25" p-id="1983"></path><path d="M532.894 138.904l-64.036-64.038 22.24-22.24 64.036 64.038z" fill="#FBB03B" p-id="1984"></path></svg>