<?xml version="1.0" standalone="no"?><!DOCTYPE svg PUBLIC "-//W3C//DTD SVG 1.1//EN" "http://www.w3.org/Graphics/SVG/1.1/DTD/svg11.dtd"><svg t="1525345691867" class="icon" style="" viewBox="0 0 1024 1024" version="1.1" xmlns="http://www.w3.org/2000/svg" p-id="12317" xmlns:xlink="http://www.w3.org/1999/xlink" width="200" height="200"><defs><style type="text/css"></style></defs><path d="M918.1 945.2H107.9c-41.2 0-74.6-33.4-74.6-74.6V243.3c0-41.2 33.4-74.6 74.6-74.6H918c41.2 0 74.6 33.4 74.6 74.6v627.3c0.1 41.2-33.3 74.6-74.5 74.6z" fill="#83C6EF" p-id="12318"></path><path d="M520.9 168.7H107.6c-41 0-74.3 33.3-74.3 74.3v628c0 41 33.3 74.3 74.3 74.3h413.3V168.7z" fill="#D2EDF7" p-id="12319"></path><path d="M146.5 335.5V815h655.6v-69.3h77.4V335.5z" fill="#FFFFFF" p-id="12320"></path><path d="M372.2 238.2H267.9v-86.9c0-28.8 23.3-52.1 52.1-52.1s52.1 23.3 52.1 52.1v86.9zM758.1 238.2H653.8v-86.9c0-28.8 23.3-52.1 52.1-52.1s52.1 23.3 52.1 52.1v86.9z" fill="#1A7FC0" p-id="12321"></path><path d="M330.5 412h52.1v52.1h-52.1z" fill="#429BCF" p-id="12322"></path><path d="M437.4 412h52.1v52.1h-52.1z" fill="#C11B16" p-id="12323"></path><path d="M544.3 412h52.1v52.1h-52.1zM651.2 412h52.1v52.1h-52.1zM758.1 412h52.1v52.1h-52.1zM223.6 523.1h52.1v52.1h-52.1zM330.5 523.1h52.1v52.1h-52.1zM437.4 523.1h52.1v52.1h-52.1zM544.3 523.1h52.1v52.1h-52.1z" fill="#429BCF" p-id="12324"></path><path d="M651.2 523.1h52.1v52.1h-52.1z" fill="#FDC223" p-id="12325"></path><path d="M758.1 523.1h52.1v52.1h-52.1zM223.6 634.2h52.1v52.1h-52.1z" fill="#429BCF" p-id="12326"></path><path d="M330.5 634.2h52.1v52.1h-52.1z" fill="#FDC223" p-id="12327"></path><path d="M437.4 634.2h52.1v52.1h-52.1z" fill="#C11B16" p-id="12328"></path><path d="M544.3 634.2h52.1v52.1h-52.1zM651.2 634.2h52.1v52.1h-52.1zM758.1 634.2h52.1v52.1h-52.1zM879.5 745.7h-77.4V815z" fill="#429BCF" p-id="12329"></path><path d="M372.2 238.2h-52.1v-139c28.8 0 52.1 23.3 52.1 52.1v86.9zM758.1 238.2H706v-139c28.8 0 52.1 23.3 52.1 52.1v86.9z" fill="#2D416C" p-id="12330"></path></svg>