<?xml version="1.0" standalone="no"?><!DOCTYPE svg PUBLIC "-//W3C//DTD SVG 1.1//EN" "http://www.w3.org/Graphics/SVG/1.1/DTD/svg11.dtd"><svg t="1525506788520" class="icon" style="" viewBox="0 0 1024 1024" version="1.1" xmlns="http://www.w3.org/2000/svg" p-id="4771" xmlns:xlink="http://www.w3.org/1999/xlink" width="200" height="200"><defs><style type="text/css"></style></defs><path d="M345.6 529.066667v213.333333c0 25.6-17.066667 42.666667-42.666667 42.666667h-42.666666c-25.6 0-42.666667-17.066667-42.666667-42.666667v-256c0-25.6 17.066667-42.666667 42.666667-42.666667h85.333333c51.2 0 98.133333-29.866667 115.2-76.8l38.4-98.133333c12.8-21.333333 34.133333-34.133333 55.466667-25.6l25.6 8.533333c34.133333 12.8 55.466667 46.933333 46.933333 85.333334l-17.066667 81.066666c-4.266667 12.8 4.266667 21.333333 17.066667 25.6h136.533333c25.6 0 42.666667 17.066667 42.666667 42.666667v8.533333l-64 256c-4.266667 17.066667-21.333333 34.133333-42.666667 34.133334h-221.866666c-12.8 0-21.333333-8.533333-21.333334-21.333334s8.533333-21.333333 21.333334-21.333333h221.866666l55.466667-221.866667 8.533333-34.133333h-157.866666c-25.6 0-42.666667-17.066667-42.666667-42.666667v-8.533333l25.6-106.666667c4.266667-12.8-4.266667-29.866667-21.333333-34.133333-12.8-4.266667-29.866667 4.266667-34.133334 17.066667L503.466667 384c-25.6 64-89.6 106.666667-157.866667 106.666667v38.4z m-85.333333-21.333334v213.333334c0 12.8 8.533333 21.333333 21.333333 21.333333s21.333333-8.533333 21.333333-21.333333v-213.333334c0-12.8-8.533333-21.333333-21.333333-21.333333-8.533333 0-21.333333 8.533333-21.333333 21.333333z" p-id="4772"></path></svg>