<?xml version="1.0" standalone="no"?><!DOCTYPE svg PUBLIC "-//W3C//DTD SVG 1.1//EN" "http://www.w3.org/Graphics/SVG/1.1/DTD/svg11.dtd"><svg t="1525357185141" class="icon" style="" viewBox="0 0 1024 1024" version="1.1" xmlns="http://www.w3.org/2000/svg" p-id="11324" xmlns:xlink="http://www.w3.org/1999/xlink" width="200" height="200"><defs><style type="text/css"></style></defs><path d="M61.4 683.6h50.4V883H61.4z" fill="#2D416C" p-id="11325"></path><path d="M101.9 943c-22.3 0-40.5-18.2-40.5-40.5v-53.4c0-22.3 18.2-40.5 40.5-40.5s40.5 18.2 40.5 40.5v53.4c0 22.3-18.2 40.5-40.5 40.5z" fill="#1A7FC0" p-id="11326"></path><path d="M207.8 1010.2c-43.1 0-78.3-35.2-78.3-78.3V819.7c0-43.1 35.2-78.3 78.3-78.3 43.1 0 78.3 35.2 78.3 78.3v112.2c0 43.1-35.2 78.3-78.3 78.3z" fill="#F9C85D" p-id="11327"></path><path d="M216.1 741.4h-8.2v268.8h8.2c38.6 0 70.1-31.5 70.1-70.1V811.5c-0.1-38.6-31.6-70.1-70.1-70.1z" fill="#FFB103" p-id="11328"></path><path d="M142.4 817.9h46.1v18.7h-46.1zM142.4 866.4h46.1v18.7h-46.1zM142.4 914.9h46.1v18.7h-46.1zM228.5 817.9h46.1v18.7h-46.1zM228.5 866.4h46.1v18.7h-46.1zM228.5 914.9h46.1v18.7h-46.1zM943.847 883.056h-50.4v-199.4h50.4z" fill="#2D416C" p-id="11329"></path><path d="M903.3 943c22.3 0 40.5-18.2 40.5-40.5v-53.4c0-22.3-18.2-40.5-40.5-40.5s-40.5 18.2-40.5 40.5v53.4c0 22.3 18.3 40.5 40.5 40.5z" fill="#1A7FC0" p-id="11330"></path><path d="M797.4 1010.2c43.1 0 78.3-35.2 78.3-78.3V819.7c0-43.1-35.2-78.3-78.3-78.3-43.1 0-78.3 35.2-78.3 78.3v112.2c0 43.1 35.2 78.3 78.3 78.3z" fill="#F9C85D" p-id="11331"></path><path d="M789.2 741.4h8.2v268.8h-8.2c-38.6 0-70.1-31.5-70.1-70.1V811.5c0-38.6 31.5-70.1 70.1-70.1z" fill="#FFB103" p-id="11332"></path><path d="M862.816 836.655h-46.1v-18.7h46.1zM862.816 885.172h-46.1v-18.7h46.1zM862.816 933.69h-46.1v-18.7h46.1zM776.692 836.655h-46.1v-18.7h46.1zM776.692 885.172h-46.1v-18.7h46.1zM776.692 933.69h-46.1v-18.7h46.1z" fill="#2D416C" p-id="11333"></path><path d="M943.9 691.6l-95.4 31.8V453c0-184.2-149.8-334-334-334h-23.9c-184.2 0-334 149.8-334 334v238.6H61V453C61 216.1 253.7 23.5 490.5 23.5h23.9c236.8 0 429.5 192.7 429.5 429.5v238.6z" fill="#83C6EF" p-id="11334"></path><path d="M514.4 23.5h-11.9v95.4h11.9c184.2 0 334 149.8 334 334v270.4h95.4V453c0.1-236.9-192.6-429.5-429.4-429.5z" fill="#429BCF" p-id="11335"></path></svg>