<?xml version="1.0" standalone="no"?><!DOCTYPE svg PUBLIC "-//W3C//DTD SVG 1.1//EN" "http://www.w3.org/Graphics/SVG/1.1/DTD/svg11.dtd"><svg t="1525506797721" class="icon" style="" viewBox="0 0 1024 1024" version="1.1" xmlns="http://www.w3.org/2000/svg" p-id="5482" xmlns:xlink="http://www.w3.org/1999/xlink" width="200" height="200"><defs><style type="text/css"></style></defs><path d="M411.232 511.616a32 32 0 0 1-9.632-60.096l192-96a31.936 31.936 0 1 1 28.48 57.248l-192 96a31.744 31.744 0 0 1-10.208 2.976c3.52 0.544 6.976 1.696 10.208 3.424l192 96A32 32 0 0 1 608 672a32.096 32.096 0 0 1-14.4-3.52l-192-96a32 32 0 0 1 9.632-60.864zM352 608a96 96 0 1 1 0-192 96 96 0 0 1 0 192z m0-128a32 32 0 1 0 0 64 32 32 0 0 0 0-64z m320-32a96 96 0 1 1 0-192 96 96 0 0 1 0 192z m0-128a32 32 0 1 0 0 64 32 32 0 0 0 0-64z m0 448a96 96 0 1 1 0-192 96 96 0 0 1 0 192z m0-128a32 32 0 1 0 0 64 32 32 0 0 0 0-64z" p-id="5483"></path></svg>