<?xml version="1.0" standalone="no"?><!DOCTYPE svg PUBLIC "-//W3C//DTD SVG 1.1//EN" "http://www.w3.org/Graphics/SVG/1.1/DTD/svg11.dtd"><svg t="1525345677191" class="icon" style="" viewBox="0 0 1024 1024" version="1.1" xmlns="http://www.w3.org/2000/svg" p-id="12184" xmlns:xlink="http://www.w3.org/1999/xlink" width="200" height="200"><defs><style type="text/css"></style></defs><path d="M300.347 625.836l95.953 95.953-133.359 133.359-95.953-95.953z" fill="#C11B16" p-id="12185"></path><path d="M467.2 918.1c58.3-58.3 79.5-140.1 64.7-217.7 68.1-32.2 145.2-88 225.2-167.9 189.3-189.3 248.7-516.1 248.7-516.1S679 75.7 489.7 265c-80 80-135.7 157.1-167.9 225.2-77.7-14.8-159.4 6.4-217.7 64.7-0.8 0.8-1.5 1.6-2.3 2.5l95 95c-0.4 0.3-0.8 0.6-1.2 1-11.9 11.9-11.9 31.3 0 43.2l130.1 130.1c11.9 11.9 31.3 11.9 43.2 0 0.4-0.4 0.6-0.8 1-1.2l95 95c0.7-0.8 1.5-1.6 2.3-2.4z" fill="#83C6EF" p-id="12186"></path><path d="M752.2 537.2c1.6-1.6 3.3-3.1 4.9-4.7C808.6 481 850.4 419.4 884 356.9L665.2 138.1c-62.5 33.7-124.1 75.5-175.6 126.9-1.6 1.6-3.1 3.3-4.7 4.9l267.3 267.3z" fill="#429BCF" p-id="12187"></path><path d="M776.3 245.8m-72.4 0a72.4 72.4 0 1 0 144.8 0 72.4 72.4 0 1 0-144.8 0Z" fill="#2D416C" p-id="12188"></path><path d="M776.3 245.8m-59 0a59 59 0 1 0 118 0 59 59 0 1 0-118 0Z" fill="#FFFFFF" p-id="12189"></path><path d="M818 204.1l-83.4 83.4c23 23 60.3 23 83.4 0 23-23 23-60.3 0-83.4z" fill="#D2EDF7" p-id="12190"></path><path d="M618.6 403.6m-72.4 0a72.4 72.4 0 1 0 144.8 0 72.4 72.4 0 1 0-144.8 0Z" fill="#2D416C" p-id="12191"></path><path d="M618.6 403.6m-59 0a59 59 0 1 0 118 0 59 59 0 1 0-118 0Z" fill="#FFFFFF" p-id="12192"></path><path d="M660.3 361.9l-83.4 83.4c23 23 60.3 23 83.4 0 23-23.1 23-60.4 0-83.4z" fill="#D2EDF7" p-id="12193"></path><path d="M239.6 488.1l294.5 294.5c3.7-27.1 3.1-54.9-2.1-82.1 1.5-0.7 3-1.5 4.4-2.3L324 485.8c-0.7 1.5-1.6 3-2.3 4.4-27.2-5.2-55-5.9-82.1-2.1z" fill="#429BCF" p-id="12194"></path><path d="M172.2 937.5c-31.5 31.5-105.9 67.6-129.5 44s12.5-98 44-129.5 76.2-37.9 99.8-14.3 17.2 68.3-14.3 99.8z" fill="#FDC223" p-id="12195"></path><path d="M167.4 916.7c-22.1 22.1-74.3 47.5-90.8 30.9s8.8-68.7 30.9-90.8c22.1-22.1 53.4-26.6 70-10.1s12 47.9-10.1 70z" fill="#FFF6CA" p-id="12196"></path></svg>